# xmcd
#
# Track frame offsets:
#	200
#	21320
#	43272
#	58302
#	80822
#	94912
#	110980
#	141920
#	159782
#	171112
#	185195
#	195685
#	215595
#
# Disc length: 3148 seconds
#
# Revision: 2
# Processed by: cddbd v1.4PL0 Copyright (c) Steve Scherf et al.
# Submitted via: EasyCDDAExtractor 5.0.6
#
DISCID=cb0c4a0d
DTITLE=Charles Brown - All My Life
DYEAR=1990
DGENRE=Blues
TTITLE0=Early InThe Morning
TTITLE1=Fool's Paradise
TTITLE2=Bad Bad Whiskey
TTITLE3=When The Sun Comes Out
TTITLE4=Nobody Knows The Trouble I've Seen
TTITLE5=That's A Pretty Good Love
TTITLE6=A Virus Called The Blues
TTITLE7=Seven Days Long
TTITLE8=Joyce's Boogie
TTITLE9=Trouble Blues
TTITLE10=Tell Me Who
TTITLE11=All My Life
TTITLE12=Too Late
EXTD=
EXTT0=(Charles Brown/C. Mose Music, BMI)
EXTT1=(Jerry Fuller-Mable Cordle/ Acuff-Rose Music, Inc., BMI)
EXTT2=(Eddie Noble/Sulpat Music, BMI)
EXTT3=(Mort Shuman-Clive Westlake/Unichappel Music, BMI-Belinda London Ltd., P
EXTT3=RS)
EXTT4=(trad. arr. Charles Brown/C. Mose Music, BMI)
EXTT5=(B. Lucas-Fred mendelsohn/Screen Gems-EMI, BMI)
EXTT6=(Homer Brown-Charles Brown/James Van Buren Music-C. Mose Music, BMI)
EXTT7=(Jesse Mae Robinson-Charles Brown/EMI-Unart Catalog-C. Mose Music, BMI)
EXTT8=(Charles Brown/C. Mose Music, BMI)
EXTT9=(Charles Brown/EMI-Unart Catalog,Inc., BMI)
EXTT10=(Charles Brown/C.Mose Music, BMI)
EXTT11=(Sidney Mitchell-Sam Stepp/Sam Fox Publishing Co.., Inc., ASCAP)
EXTT12=(Charles Brown.C. Mose Music, BMI)
PLAYORDER=
